<?xml version="1.0" encoding="UTF-8"?><svg id="Layer_2" xmlns="http://www.w3.org/2000/svg" width="39.36" height="40" viewBox="0 0 39.36 40"><defs><style>.cls-1{fill:#000;stroke-width:0px;}</style></defs><g id="Layer_1-2"><path class="cls-1" d="M9.65,3.41c0-.79,0-1.52,0-2.25,0-.17,0-.33,0-.5.03-.38.28-.64.62-.66.36-.02.67.24.69.63.03.58.01,1.17.02,1.75,0,.33,0,.66,0,1.01h17.4c0-.17,0-.35,0-.52,0-.71,0-1.42,0-2.12C28.39.29,28.67,0,29.05,0c.39,0,.65.29.66.75.01.72,0,1.44,0,2.17,0,.15,0,.3,0,.49.2,0,.34,0,.49,0,1.94,0,3.89,0,5.83,0,1.94,0,3.32,1.35,3.32,3.29,0,7.79,0,15.58-.01,23.37,0,.27-.15.6-.35.79-3.11,2.95-6.24,5.89-9.39,8.81-.2.19-.54.32-.81.32-8.5.02-17,.02-25.5.01-1.91,0-3.3-1.37-3.3-3.27C0,26.71,0,16.7,0,6.69c0-1.91,1.38-3.27,3.29-3.28,1.94,0,3.89,0,5.83,0,.15,0,.3,0,.52,0ZM1.33,12.63c0,.18,0,.32,0,.46,0,7.82,0,15.64,0,23.46,0,1.4.73,2.13,2.13,2.13,8.14,0,16.28,0,24.41,0h.47v-.5c0-2.56,0-5.11,0-7.67,0-.71.2-.92.91-.92,2.76,0,5.53,0,8.29,0,.15,0,.3,0,.44,0V12.63H1.33ZM9.65,4.74c-.17,0-.3,0-.42,0-1.97,0-3.94,0-5.92,0-1.2,0-1.97.77-1.98,1.98,0,1.39,0,2.78,0,4.17,0,.12.02.24.02.36h36.65c0-.12.02-.22.02-.31,0-1.42,0-2.83,0-4.25,0-1.18-.79-1.94-1.97-1.94-1.97,0-3.94,0-5.92,0-.13,0-.26.02-.42.03,0,.3.02.56,0,.82-.03.33.06.54.38.73,1.08.67,1.15,2.23.17,3.03-.84.68-2.1.52-2.73-.35-.65-.9-.4-2.13.54-2.73.12-.08.29-.21.3-.33.04-.38.01-.77.01-1.17H10.98c0,.31.02.6,0,.88-.02.3.06.49.35.66.73.42,1.04,1.3.8,2.1-.24.83-.97,1.38-1.83,1.37-.86,0-1.58-.56-1.81-1.39-.23-.81.11-1.67.84-2.13.12-.07.29-.19.3-.29.04-.4.01-.8.01-1.23ZM29.71,30.93v6.83c2.44-2.29,4.83-4.53,7.28-6.83h-7.28ZM10.86,7.87c0-.31-.25-.55-.56-.54-.3,0-.55.26-.54.56,0,.31.25.54.56.54.32,0,.54-.24.54-.56ZM29.03,8.43c.32,0,.56-.21.57-.53,0-.3-.23-.56-.53-.57-.31-.01-.56.22-.56.53,0,.32.22.56.53.56Z"/><path class="cls-1" d="M33.03,25.4c0,1.3-1.08,2.35-2.37,2.34-1.3-.01-2.34-1.07-2.34-2.37,0-1.3,1.05-2.36,2.35-2.36,1.31,0,2.36,1.07,2.36,2.4ZM31.7,25.36c0-.57-.48-1.04-1.04-1.02-.57.02-1.01.49-.99,1.07.01.55.47,1,1.02.99.57,0,1.02-.47,1.01-1.04Z"/><path class="cls-1" d="M25.7,25.38c0,1.3-1.06,2.36-2.35,2.36-1.31,0-2.35-1.04-2.36-2.35,0-1.3,1.03-2.37,2.33-2.38,1.31-.01,2.38,1.05,2.38,2.37ZM24.37,25.37c0-.57-.47-1.04-1.03-1.03-.55,0-1,.46-1,1.02,0,.58.45,1.05,1.01,1.05.57,0,1.03-.46,1.03-1.03Z"/><path class="cls-1" d="M18.37,25.37c0,1.3-1.05,2.37-2.34,2.37-1.31,0-2.36-1.03-2.37-2.34-.01-1.32,1.05-2.4,2.36-2.39,1.3,0,2.34,1.06,2.35,2.36ZM17.03,25.36c0-.57-.48-1.03-1.04-1.02-.55.02-.99.47-1,1.02,0,.57.45,1.04,1.02,1.04.57,0,1.02-.47,1.02-1.04Z"/><path class="cls-1" d="M6.33,25.36c0-1.3,1.06-2.36,2.36-2.35,1.31,0,2.37,1.08,2.35,2.4-.01,1.28-1.06,2.33-2.34,2.33-1.32,0-2.38-1.05-2.37-2.38ZM9.7,25.39c0-.57-.45-1.04-1.02-1.04-.55,0-1,.45-1.02,1-.01.58.43,1.05,1,1.06.57.01,1.03-.45,1.04-1.02Z"/><path class="cls-1" d="M16.03,20.02c-1.34,0-2.37-1.04-2.37-2.37,0-1.3,1.05-2.34,2.36-2.33,1.31,0,2.34,1.04,2.35,2.35,0,1.31-1.04,2.35-2.34,2.35ZM16.05,16.65c-.58-.02-1.04.42-1.05,1-.01.57.4,1.02.96,1.04.59.02,1.05-.39,1.07-.97.02-.59-.41-1.05-.98-1.06Z"/><path class="cls-1" d="M23.32,15.31c1.33,0,2.38,1.03,2.38,2.36,0,1.29-1.02,2.33-2.31,2.35-1.34.02-2.39-1.01-2.4-2.34,0-1.31,1.02-2.36,2.33-2.37ZM23.34,18.68c.58,0,1.03-.44,1.03-1.02,0-.58-.45-1.02-1.03-1.02-.56,0-1,.44-1.01,1,0,.58.43,1.03,1.01,1.04Z"/><path class="cls-1" d="M33.03,17.69c0,1.3-1.06,2.34-2.37,2.32-1.31-.01-2.34-1.05-2.34-2.36,0-1.32,1.06-2.36,2.39-2.34,1.31.02,2.32,1.06,2.31,2.38ZM30.67,18.68c.58,0,1.03-.44,1.02-1.02,0-.57-.43-1-.99-1.01-.59-.01-1.04.42-1.05,1,0,.58.43,1.03,1.01,1.03Z"/><path class="cls-1" d="M8.68,20.02c-1.34,0-2.37-1.05-2.35-2.39.01-1.31,1.07-2.34,2.38-2.32,1.31.01,2.34,1.05,2.33,2.37,0,1.31-1.05,2.35-2.36,2.34ZM8.68,16.65c-.58,0-1.02.45-1.02,1.03,0,.56.44,1,1,1.01.59,0,1.03-.43,1.04-1.01,0-.58-.44-1.03-1.02-1.03Z"/><path class="cls-1" d="M25.7,33.11c0,1.3-1.07,2.35-2.36,2.34-1.32-.02-2.35-1.04-2.35-2.35,0-1.33,1.05-2.37,2.38-2.36,1.31.01,2.33,1.06,2.33,2.37ZM23.32,34.11c.58,0,1.03-.43,1.04-1.01,0-.58-.43-1.03-1.02-1.03-.56,0-1,.42-1.02.99-.02.59.42,1.04.99,1.05Z"/><path class="cls-1" d="M11.04,33.1c0,1.3-1.05,2.36-2.35,2.35-1.32,0-2.35-1.03-2.36-2.34,0-1.33,1.04-2.38,2.37-2.37,1.31,0,2.34,1.05,2.34,2.36ZM9.7,33.09c0-.58-.44-1.03-1.02-1.02-.56,0-1,.43-1.01.99-.01.59.42,1.04,1,1.05.58,0,1.03-.43,1.04-1.01Z"/><path class="cls-1" d="M18.37,33.09c0,1.31-1.04,2.36-2.34,2.36-1.32,0-2.36-1.02-2.37-2.33-.01-1.31,1.02-2.37,2.32-2.38,1.33-.01,2.39,1.02,2.39,2.35ZM17.03,33.09c0-.58-.45-1.02-1.03-1.02-.56,0-1,.44-1.01,1,0,.58.43,1.04,1.01,1.04.58,0,1.03-.44,1.03-1.02Z"/></g></svg>