<?xml version="1.0" encoding="UTF-8"?><svg id="Layer_2" xmlns="http://www.w3.org/2000/svg" width="56.09" height="56.09" viewBox="0 0 56.09 56.09"><defs><style>.cls-1{fill:#ff0933;}.cls-1,.cls-2{stroke-width:0px;}.cls-2{fill:#fff;}</style></defs><g id="Layer_1-2"><circle class="cls-1" cx="28.05" cy="28.05" r="28.05"/><path class="cls-2" d="M28.05,9.09c-10.45,0-18.96,8.5-18.96,18.96,0,2.87.62,5.62,1.86,8.19l.06.12,1.18-.57-.06-.12c-1.14-2.39-1.73-4.95-1.73-7.62,0-9.73,7.92-17.65,17.65-17.65s17.65,7.92,17.65,17.65-7.92,17.65-17.65,17.65c-2,0-3.93-.44-4.77-.66v-28.46h-1.31v29.44s.46.14.46.14c.28.09,2.84.84,5.61.84,10.45,0,18.96-8.5,18.96-18.96s-8.5-18.96-18.96-18.96Z"/></g></svg>