<?xml version="1.0" encoding="UTF-8"?><svg id="Layer_2" xmlns="http://www.w3.org/2000/svg" width="40.01" height="40" viewBox="0 0 40.01 40"><defs><style>.cls-1{fill:#000;stroke-width:0px;}</style></defs><g id="Layer_1-2"><path class="cls-1" d="M18.83,0c.81,0,1.62,0,2.42,0,.67.09,1.34.15,2,.26,3.8.64,7.16,2.23,10.03,4.79,3.45,3.09,5.6,6.91,6.42,11.47.13.73.21,1.46.31,2.19v2.42c-.1.76-.17,1.52-.31,2.27-.88,4.89-3.21,8.98-7.1,12.05-5.71,4.5-12.15,5.74-19.03,3.36C6.24,36.29,1.87,31.02.32,23.45c-.15-.73-.21-1.49-.32-2.23,0-.83,0-1.66,0-2.5.1-.73.18-1.46.31-2.19C1.69,8.44,8.05,1.95,16.1.39,17,.22,17.92.13,18.83,0ZM1.6,19.95c.04,10.21,8.28,18.43,18.44,18.39,10.16-.05,18.43-8.32,18.37-18.38-.06-10.26-8.34-18.44-18.58-18.36C9.77,1.67,1.56,9.94,1.6,19.95Z"/><path class="cls-1" d="M20.8,14.09c0,1.73,0,3.46.01,5.19,0,.2.11.45.25.6,1.89,1.9,3.79,3.79,5.68,5.69.12.12.24.24.33.38.2.31.14.7-.12.96-.26.26-.65.31-.97.12-.11-.07-.2-.16-.3-.25-2.04-2.03-4.07-4.06-6.11-6.09-.26-.26-.38-.53-.38-.9,0-3.61,0-7.23,0-10.84,0-.54.21-.85.64-.93.51-.1.94.25.94.81.01,1.1,0,2.21,0,3.31,0,.65,0,1.3,0,1.95Z"/></g></svg>